# AST/ASF file generated using VICON BodyLanguage
# -----------------------------------------------
:version 1.10
:name VICON
:units
  mass 1.0
  length 0.45
  angle deg
:documentation
   .ast/.asf automatically generated from VICON data using
   VICON BodyBuilder and BodyLanguage model FoxedUp or BRILLIANT.MOD
:root
   order TX TY TZ RX RY RZ
   axis XYZ
   position 0 0 0  
   orientation 0 0 0 
:bonedata
  begin
     id 1 
     name lhipjoint
     direction 0.646657 -0.683706 0.338203 
     length 2.4948 
     axis 0 0 0  XYZ
  end
  begin
     id 2 
     name lfemur
     direction 0.34202 -0.939693 0  
     length 6.79491  
     axis 0 0 20  XYZ
    dof rx ry rz
    limits (-160.0 20.0)
           (-70.0 70.0)
           (-60.0 70.0)
  end
  begin
     id 3 
     name ltibia
     direction 0.34202 -0.939693 0   
     length 7.56807   
     axis 0 0 20   XYZ
    dof rx
    limits (-10.0 170.0)
  end
  begin
     id 4 
     name lfoot
     direction 0.0679796 -0.186772 0.980048   
     length 2.53018   
     axis -90 7.62852e-016 20   XYZ
    dof rx rz
    limits (-45.0 90.0)
           (-70.0 20.0)
  end
  begin
     id 5 
     name ltoes
     direction 1.53625e-011 -4.21881e-011 1   
     length 1.26912   
     axis -90 7.62852e-016 20   XYZ
    dof rx
    limits (-90.0 20.0)
  end
  begin
     id 6 
     name rhipjoint
     direction -0.618868 -0.704065 0.348274   
     length 2.42265  
     axis 0 0 0  XYZ 
  end
  begin
     id 7 
     name rfemur
     direction -0.34202 -0.939693 0   
     length 6.73814   
     axis 0 0 -20   XYZ
    dof rx ry rz
    limits (-160.0 20.0)
           (-70.0 70.0)
           (-70.0 60.0)
  end
  begin
     id 8 
     name rtibia
     direction -0.34202 -0.939693 0   
     length 7.66799   
     axis 0 0 -20   XYZ
    dof rx
    limits (-10.0 170.0)
 end
 begin
     id 9 
     name rfoot
     direction -0.0727352 -0.199838 0.977125   
     length 2.57224  
     axis -90 -7.62852e-016 -20   XYZ
    dof rx rz
    limits (-45.0 90.0)
           (-20.0 70.0)
  end
  begin
     id 10 
     name rtoes
     direction -1.53501e-011 -4.21858e-011 1   
     length 1.28858   
     axis -90 -7.62852e-016 -20   XYZ
    dof rx
    limits (-90.0 20.0)
  end
  begin
     id 11 
     name lowerback
     direction -0.0172471 0.995767 -0.0902851   
     length 2.20206   
     axis 0 0 0   XYZ
    dof rx ry rz
    limits (-20.0 45.0)
           (-30.0 30.0)
           (-30.0 30.0)
  end
  begin
     id 12 
     name upperback
     direction -0.000110737 0.999714 0.0239043   
     length 2.19523   
     axis 0 0 0   XYZ
    dof rx ry rz
    limits (-20.0 45.0)
           (-30.0 30.0)
           (-30.0 30.0)
  end
  begin
     id 13 
     name thorax
     direction 0.00704869 0.997783 0.0661741   
     length 2.21977   
     axis 0 0 0   XYZ
    dof rx ry rz
    limits (-20.0 45.0)
           (-30.0 30.0)
           (-30.0 30.0)
  end
  begin
     id 14 
     name lowerneck
     direction -0.00407501 0.995527 0.0943846   
     length 1.83142   
     axis 0 0 0   XYZ
    dof rx ry rz
    limits (-20.0 45.0)
           (-30.0 30.0)
           (-30.0 30.0)
  end
  begin
     id 15 
     name upperneck
     direction 0.0640586 0.986486 -0.150807   
     length 1.84616   
     axis 0 0 0   XYZ
    dof rx ry rz
    limits (-20.0 45.0)
           (-30.0 30.0)
           (-30.0 30.0)
  end
  begin
     id 16
     name head
     direction 0.0188017 0.99791 -0.0618239  
     length 1.85932  
     axis 0 0 0   XYZ
    dof rx ry rz
    limits (-20.0 45.0)
           (-30.0 30.0)
           (-30.0 30.0)
  end
  begin
     id 17 
     name lclavicle
     direction 0.976074 0.206905 0.066852  
     length 3.81043  
     axis 0 0 0   XYZ
    dof ry rz
    limits (-20.0 10.0)
           (0.0 20.0)
  end
  begin
     id 18 
     name lhumerus
     direction 1 -4.48971e-011 1.86916e-027   
     length 5.37587   
     axis 180 -30 -90   XYZ
    dof rx ry rz
    limits (-60.0 90.0)
           (-90.0 90.0)
           (-90.0 90.0)
  end
  begin
     id 19
     name lradius
     direction 1 -4.48968e-011 1.69187e-027   
     length 3.35977   
     axis 180 -30 -90   XYZ
    dof rx
    limits (-10.0 170.0)
  end
  begin
     id 20
     name lwrist
     direction 1 -4.48968e-011 5.8978e-027   
     length 1.67988   
     axis -3.27506e-015 90 90   XYZ
    dof ry
    limits (-180.0 0.0)
 end
  begin
     id 21 
     name lhand
     direction 1 -4.49028e-011 1.18071e-026   
     length 0.561859   
     axis -7.52654e-015 90 90   XYZ
    dof rx rz
    limits (-90.0 90.0)
           (-45.0 45.0)
  end
  begin
     id 22 
     name lfingers
     direction 1 -4.48927e-011 2.35758e-026   
     length 0.452985   
     axis -1.50534e-014 90 90   XYZ
    dof rx
    limits (0.0 90.0)
  end
  begin
     id 23
     name lthumb
     direction 0.707107 -6.34898e-011 0.707107   
     length 0.650399   
     axis -90 45 5.69224e-014   XYZ
    dof rx rz
    limits (-45.0 45.0)
           (-45.0 45.0)
  end
  begin
     id 24 
     name rclavicle
     direction -0.988403 0.151789 0.00439714   
     length 3.6942  
     axis 0 0 0   XYZ 
    dof ry rz
    limits (-10.0 20.0)
           (-20.0 0.0)
  end
  begin
     id 25 
     name rhumerus
     direction -1 -4.48978e-011 1.62495e-027  
     length 5.22819   
     axis 180 30 90   XYZ
    dof rx ry rz
    limits (-90.0 60.0)
           (-90.0 90.0)
           (-90.0 90.0)
  end
  begin
     id 26 
     name rradius
     direction -1 -4.48961e-011 3.47796e-027   
     length 3.40764   
     axis 180 30 90   XYZ
    dof rx
    limits (-10.0 170.0)
  end
  begin
     id 27 
     name rwrist
     direction -1 -4.48949e-011 5.89602e-027   
     length 1.70382   
     axis -3.27506e-015 -90 -90   XYZ
    dof ry
    limits (-180.0 0.0)
  end
  begin
     id 28
     name rhand
     direction -1 -4.48977e-011 1.17973e-026   
     length 0.583255   
     axis -7.52654e-015 -90 -90   XYZ
    dof rx rz
    limits (-90.0 90.0)
           (-45.0 45.0)
  end
  begin
     id 29
     name rfingers
     direction -1 -4.49099e-011 2.36408e-026   
     length 0.470235   
     axis -1.50534e-014 -90 -90   XYZ
    dof rx
    limits (0.0 90.0)
  end
  begin
     id 30
     name rthumb
     direction -0.707107 -6.35011e-011 0.707107   
     length 0.675167   
     axis -90 -45 -5.69224e-014   XYZ
    dof rx rz
    limits (-45.0 45.0)
           (-45.0 45.0)
  end
:hierarchy
  begin
    root lhipjoint rhipjoint lowerback
    lhipjoint lfemur
    lfemur ltibia
    ltibia lfoot
    lfoot ltoes
    rhipjoint rfemur
    rfemur rtibia
    rtibia rfoot
    rfoot rtoes
    lowerback upperback
    upperback thorax
    thorax lowerneck lclavicle rclavicle
    lowerneck upperneck
    upperneck head
    lclavicle lhumerus
    lhumerus lradius
    lradius lwrist
    lwrist lhand lthumb
    lhand lfingers
    rclavicle rhumerus
    rhumerus rradius
    rradius rwrist
    rwrist rhand rthumb
    rhand rfingers
  end

#!OML:ASF G:\JayActor3\Patient Classification 1\Patient 1\Session 2\male.ASF
:FULLY-SPECIFIED
:DEGREES
456
root 49.6145 16.6937 -7.64294 18.8779 -87.9321 -16.8999
lowerback -1.21655 -1.50714 -2.61454
upperback 5.27139 -2.04611 0.979061
thorax 6.28656 -1.21231 2.3412
lowerneck -1.15093 -10.1531 -10.1493
upperneck -5.06454 -13.3191 13.293
head 0.301622 -6.71808 5.34789
rclavicle -5.09075e-015 -1.30452e-015
rhumerus -32.5823 2.42557 -84.2494
rradius 34.1085
rwrist -9.44738
rhand -23.0361 4.01018
rfingers 7.12502
rthumb 3.40823 -25.9423
lclavicle -5.09075e-015 -1.30452e-015
lhumerus -30.8979 2.12679 84.9442
lradius 33.6417
lwrist 15.4033
lhand -18.7899 18.7246
lfingers 7.12502
lthumb 7.5079 48.5714
rfemur -14.4386 0.462388 21.2714
rtibia 35.8118
rfoot -24.8839 -9.219
rtoes 18.636
lfemur -7.90149 0.929035 -18.0599
ltibia 23.761
lfoot -14.8048 8.17692
ltoes -7.79576
457
root 49.6126 16.694 -7.64245 18.7048 -87.9212 -16.7092
lowerback -1.2332 -1.49837 -2.58927
upperback 5.27431 -2.03482 0.975236
thorax 6.29732 -1.20546 2.32335
lowerneck -1.15296 -10.0861 -10.1818
upperneck -5.06542 -13.2283 13.3219
head 0.295745 -6.67257 5.36634
rclavicle 1.54679e-015 -5.75233e-015
rhumerus -32.5854 2.29226 -84.2343
rradius 34.1002
rwrist -9.4229
rhand -23.0599 4.01373
rfingers 7.12502
rthumb 3.38524 -25.9391
lclavicle 1.54679e-015 -5.75233e-015
lhumerus -30.872 2.16947 84.9284
lradius 33.6607
lwrist 15.4043
lhand -18.7851 18.729
lfingers 7.12502
lthumb 7.51262 48.5755
rfemur -14.4461 0.469559 21.2671
rtibia 35.8087
rfoot -24.8971 -9.23214
rtoes 18.6394
lfemur -7.91094 0.927473 -18.0653
ltibia 23.7499
lfoot -14.8006 8.17123
ltoes -7.81532
458
root 49.6105 16.6943 -7.64201 18.4922 -87.9127 -16.4809
lowerback -1.25034 -1.48971 -2.56681
upperback 5.27775 -2.02353 0.970602
thorax 6.30899 -1.19874 2.30623
lowerneck -1.0921 -10.0266 -10.251
upperneck -5.10337 -13.1498 13.4035
head 0.276714 -6.63585 5.40977
rclavicle -5.92937e-015 3.03147e-015
rhumerus -32.5921 2.16274 -84.2236
rradius 34.0969
rwrist -9.40108
rhand -23.0882 4.02188
rfingers 7.12502
rthumb 3.35792 -25.9314
lclavicle -5.92937e-015 3.03147e-015
lhumerus -30.8442 2.22947 84.9085
lradius 33.6786
lwrist 15.3973
lhand -18.7873 18.7383
lfingers 7.12502
lthumb 7.5105 48.585
rfemur -14.4514 0.479559 21.261
rtibia 35.8058
rfoot -24.9116 -9.2477
rtoes 18.636
lfemur -7.9167 0.927748 -18.0726
ltibia 23.7383
lfoot -14.7967 8.16541
ltoes -7.82809
459
root 49.6084 16.6944 -7.64156 18.2631 -87.9058 -16.237
lowerback -1.26865 -1.48115 -2.54631
upperback 5.28118 -2.01225 0.965885
thorax 6.32143 -1.19213 2.29009
lowerneck -0.989696 -9.96599 -10.3402
upperneck -5.1912 -13.0696 13.5187
head 0.240016 -6.60069 5.47028
rclavicle 8.01351e-015 1.01877e-015
rhumerus -32.6044 2.03898 -84.2163
rradius 34.0996
rwrist -9.38097
rhand -23.1166 4.03176
rfingers 7.12502
rthumb 3.33047 -25.922
lclavicle 8.01351e-015 1.01877e-015
lhumerus -30.8143 2.3054 84.8856
lradius 33.6936
lwrist 15.3846
lhand -18.7958 18.7411
lfingers 7.12502
lthumb 7.50224 48.5881
rfemur -14.4562 0.488776 21.2534
rtibia 35.8032
rfoot -24.926 -9.26082
rtoes 18.631
lfemur -7.92026 0.929138 -18.0812
ltibia 23.7261
lfoot -14.7936 8.1594
ltoes -7.84303
460
root 49.6061 16.6945 -7.64108 18.0361 -87.8996 -15.9962
lowerback -1.28812 -1.47245 -2.52574
upperback 5.28523 -2.00075 0.960511
thorax 6.33517 -1.18542 2.27321
lowerneck -0.849022 -9.91326 -10.4439
upperneck -5.30845 -13.001 13.6591
head 0.192644 -6.57319 5.54293
rclavicle 1.62196e-014 -9.74045e-015
rhumerus -32.6223 1.9244 -84.2137
rradius 34.1096
rwrist -9.36822
rhand -23.1405 4.04847
rfingers 7.12502
rthumb 3.30741 -25.9056
lclavicle 1.62196e-014 -9.74045e-015
lhumerus -30.7818 2.391 84.8602
lradius 33.7086
lwrist 15.3709
lhand -18.8097 18.7507
lfingers 7.12502
lthumb 7.48883 48.5982
rfemur -14.4598 0.49572 21.2452
rtibia 35.8006
rfoot -24.9387 -9.27216
rtoes 18.6207
lfemur -7.92234 0.933329 -18.0898
ltibia 23.7146
lfoot -14.7906 8.1511
ltoes -7.85832
